<svg width="409" height="544" viewBox="0 0 409 544" fill="none" xmlns="http://www.w3.org/2000/svg">
<g clip-path="url(#clip0_4_48)">
<path d="M409 0H0V544H409V0Z" fill="#1E1E1E"/>
<path d="M325 390H193V471H325V390Z" fill="#D9D9D9"/>
<path d="M189 454H131V483H189V454Z" fill="#D9D9D9"/>
<path d="M189 406H131V450H189V406Z" fill="#D9D9D9"/>
<path d="M189 354H99V398H189V354Z" fill="#D9D9D9"/>
<path d="M189 309H99V351H189V309Z" fill="#D9D9D9"/>
<path d="M325 250H195V385H325V250Z" fill="#D9D9D9"/>
<path d="M188 274H99V297H188V274Z" fill="#D9D9D9"/>
<path d="M188 210H99V269H188V210Z" fill="#D9D9D9"/>
<path d="M189 133H100V192H189V133Z" fill="#D9D9D9"/>
<path d="M307 133H218V192H307V133Z" fill="#D9D9D9"/>
<path d="M307 60H218V119H307V60Z" fill="#D9D9D9"/>
<path d="M188 60H99V119H188V60Z" fill="#D9D9D9"/>
<path d="M238.057 435V426.273H241.006C241.69 426.273 242.25 426.396 242.685 426.643C243.122 426.888 243.446 427.219 243.656 427.636C243.866 428.054 243.972 428.52 243.972 429.034C243.972 429.548 243.866 430.016 243.656 430.436C243.449 430.857 243.128 431.192 242.693 431.442C242.259 431.689 241.702 431.812 241.023 431.812H238.909V430.875H240.989C241.457 430.875 241.834 430.794 242.118 430.632C242.402 430.47 242.608 430.251 242.736 429.976C242.866 429.697 242.932 429.384 242.932 429.034C242.932 428.685 242.866 428.372 242.736 428.097C242.608 427.821 242.401 427.605 242.114 427.449C241.827 427.29 241.446 427.21 240.972 427.21H239.114V435H238.057ZM247.464 435.153C247.049 435.153 246.673 435.075 246.335 434.919C245.996 434.76 245.728 434.531 245.529 434.233C245.33 433.932 245.231 433.568 245.231 433.142C245.231 432.767 245.305 432.463 245.452 432.23C245.6 431.994 245.798 431.81 246.045 431.676C246.292 431.543 246.565 431.443 246.863 431.378C247.164 431.31 247.467 431.256 247.771 431.216C248.168 431.165 248.491 431.126 248.738 431.101C248.988 431.072 249.17 431.026 249.283 430.96C249.4 430.895 249.458 430.781 249.458 430.619V430.585C249.458 430.165 249.343 429.838 249.113 429.605C248.886 429.372 248.54 429.256 248.077 429.256C247.597 429.256 247.221 429.361 246.948 429.571C246.675 429.781 246.484 430.006 246.373 430.244L245.418 429.903C245.589 429.506 245.816 429.196 246.1 428.974C246.387 428.75 246.7 428.594 247.038 428.506C247.379 428.415 247.714 428.369 248.043 428.369C248.254 428.369 248.495 428.395 248.768 428.446C249.043 428.494 249.309 428.595 249.565 428.749C249.823 428.902 250.038 429.134 250.208 429.443C250.379 429.753 250.464 430.168 250.464 430.688V435H249.458V434.114H249.407C249.339 434.256 249.225 434.408 249.066 434.57C248.907 434.732 248.695 434.869 248.431 434.983C248.167 435.097 247.844 435.153 247.464 435.153ZM247.617 434.25C248.015 434.25 248.35 434.172 248.623 434.016C248.898 433.859 249.106 433.658 249.245 433.411C249.387 433.163 249.458 432.903 249.458 432.631V431.71C249.415 431.761 249.322 431.808 249.177 431.851C249.035 431.891 248.87 431.926 248.683 431.957C248.498 431.986 248.317 432.011 248.141 432.034C247.968 432.054 247.827 432.071 247.719 432.085C247.458 432.119 247.214 432.175 246.987 432.251C246.762 432.325 246.58 432.437 246.441 432.588C246.305 432.736 246.237 432.937 246.237 433.193C246.237 433.543 246.366 433.807 246.624 433.986C246.886 434.162 247.217 434.25 247.617 434.25ZM252.299 435V428.455H253.271V429.443H253.339C253.458 429.119 253.674 428.857 253.987 428.655C254.299 428.453 254.652 428.352 255.044 428.352C255.118 428.352 255.21 428.354 255.321 428.357C255.431 428.359 255.515 428.364 255.572 428.369V429.392C255.538 429.384 255.46 429.371 255.338 429.354C255.218 429.334 255.092 429.324 254.958 429.324C254.64 429.324 254.356 429.391 254.106 429.524C253.859 429.655 253.663 429.837 253.518 430.07C253.376 430.3 253.305 430.562 253.305 430.858V435H252.299ZM257.702 432.614L257.685 431.369H257.889L260.753 428.455H261.997L258.946 431.54H258.861L257.702 432.614ZM256.764 435V426.273H257.77V435H256.764ZM260.923 435L258.366 431.761L259.082 431.062L262.202 435H260.923ZM263.292 435V428.455H264.297V435H263.292ZM263.803 427.364C263.607 427.364 263.438 427.297 263.296 427.163C263.157 427.03 263.087 426.869 263.087 426.682C263.087 426.494 263.157 426.334 263.296 426.2C263.438 426.067 263.607 426 263.803 426C263.999 426 264.167 426.067 264.306 426.2C264.448 426.334 264.519 426.494 264.519 426.682C264.519 426.869 264.448 427.03 264.306 427.163C264.167 427.297 263.999 427.364 263.803 427.364ZM267.145 431.062V435H266.139V428.455H267.111V429.477H267.196C267.349 429.145 267.582 428.878 267.895 428.676C268.207 428.472 268.611 428.369 269.105 428.369C269.548 428.369 269.936 428.46 270.268 428.642C270.601 428.821 270.859 429.094 271.044 429.46C271.229 429.824 271.321 430.284 271.321 430.841V435H270.315V430.909C270.315 430.395 270.182 429.994 269.915 429.707C269.648 429.418 269.281 429.273 268.815 429.273C268.494 429.273 268.207 429.342 267.955 429.482C267.705 429.621 267.507 429.824 267.362 430.091C267.217 430.358 267.145 430.682 267.145 431.062ZM275.801 437.591C275.315 437.591 274.897 437.528 274.548 437.403C274.199 437.281 273.907 437.119 273.674 436.918C273.444 436.719 273.261 436.506 273.125 436.278L273.926 435.716C274.017 435.835 274.132 435.972 274.271 436.125C274.41 436.281 274.6 436.416 274.842 436.53C275.086 436.646 275.406 436.705 275.801 436.705C276.329 436.705 276.765 436.577 277.109 436.321C277.453 436.065 277.625 435.665 277.625 435.119V433.79H277.539C277.466 433.909 277.36 434.057 277.224 434.233C277.091 434.406 276.897 434.561 276.645 434.697C276.395 434.831 276.056 434.898 275.63 434.898C275.102 434.898 274.627 434.773 274.207 434.523C273.789 434.273 273.458 433.909 273.214 433.432C272.973 432.955 272.852 432.375 272.852 431.693C272.852 431.023 272.97 430.439 273.206 429.942C273.441 429.442 273.77 429.055 274.19 428.783C274.61 428.507 275.096 428.369 275.647 428.369C276.074 428.369 276.412 428.44 276.662 428.582C276.914 428.722 277.108 428.881 277.241 429.06C277.377 429.236 277.483 429.381 277.556 429.494H277.659V428.455H278.63V435.188C278.63 435.75 278.502 436.207 278.247 436.56C277.994 436.915 277.653 437.175 277.224 437.339C276.798 437.507 276.324 437.591 275.801 437.591ZM275.767 433.994C276.17 433.994 276.511 433.902 276.789 433.717C277.068 433.533 277.279 433.267 277.424 432.92C277.569 432.574 277.642 432.159 277.642 431.676C277.642 431.205 277.571 430.788 277.429 430.428C277.287 430.067 277.076 429.784 276.798 429.58C276.52 429.375 276.176 429.273 275.767 429.273C275.341 429.273 274.985 429.381 274.701 429.597C274.42 429.812 274.208 430.102 274.066 430.466C273.927 430.83 273.858 431.233 273.858 431.676C273.858 432.131 273.929 432.533 274.071 432.882C274.216 433.229 274.429 433.501 274.71 433.7C274.994 433.896 275.346 433.994 275.767 433.994Z" fill="black"/>
<path d="M239.08 316H238.023C237.96 315.696 237.851 315.429 237.695 315.199C237.541 314.969 237.354 314.776 237.132 314.619C236.913 314.46 236.67 314.341 236.403 314.261C236.136 314.182 235.858 314.142 235.568 314.142C235.04 314.142 234.561 314.276 234.132 314.543C233.706 314.81 233.366 315.203 233.114 315.723C232.864 316.243 232.739 316.881 232.739 317.636C232.739 318.392 232.864 319.03 233.114 319.55C233.366 320.07 233.706 320.463 234.132 320.73C234.561 320.997 235.04 321.131 235.568 321.131C235.858 321.131 236.136 321.091 236.403 321.011C236.67 320.932 236.913 320.814 237.132 320.658C237.354 320.499 237.541 320.304 237.695 320.074C237.851 319.841 237.96 319.574 238.023 319.273H239.08C239 319.719 238.855 320.118 238.645 320.47C238.435 320.822 238.173 321.122 237.861 321.369C237.548 321.614 237.197 321.8 236.808 321.928C236.422 322.055 236.009 322.119 235.568 322.119C234.824 322.119 234.162 321.938 233.582 321.574C233.003 321.21 232.547 320.693 232.214 320.023C231.882 319.352 231.716 318.557 231.716 317.636C231.716 316.716 231.882 315.92 232.214 315.25C232.547 314.58 233.003 314.062 233.582 313.699C234.162 313.335 234.824 313.153 235.568 313.153C236.009 313.153 236.422 313.217 236.808 313.345C237.197 313.473 237.548 313.661 237.861 313.908C238.173 314.152 238.435 314.45 238.645 314.803C238.855 315.152 239 315.551 239.08 316ZM243.31 322.136C242.719 322.136 242.201 321.996 241.755 321.714C241.311 321.433 240.965 321.04 240.715 320.534C240.468 320.028 240.344 319.437 240.344 318.761C240.344 318.08 240.468 317.484 240.715 316.976C240.965 316.467 241.311 316.072 241.755 315.791C242.201 315.51 242.719 315.369 243.31 315.369C243.901 315.369 244.418 315.51 244.861 315.791C245.307 316.072 245.654 316.467 245.901 316.976C246.151 317.484 246.276 318.08 246.276 318.761C246.276 319.437 246.151 320.028 245.901 320.534C245.654 321.04 245.307 321.433 244.861 321.714C244.418 321.996 243.901 322.136 243.31 322.136ZM243.31 321.233C243.759 321.233 244.128 321.118 244.418 320.888C244.708 320.658 244.922 320.355 245.061 319.98C245.201 319.605 245.27 319.199 245.27 318.761C245.27 318.324 245.201 317.916 245.061 317.538C244.922 317.161 244.708 316.855 244.418 316.622C244.128 316.389 243.759 316.273 243.31 316.273C242.861 316.273 242.492 316.389 242.202 316.622C241.912 316.855 241.698 317.161 241.559 317.538C241.419 317.916 241.35 318.324 241.35 318.761C241.35 319.199 241.419 319.605 241.559 319.98C241.698 320.355 241.912 320.658 242.202 320.888C242.492 321.118 242.861 321.233 243.31 321.233ZM251.936 319.324V315.455H252.942V322H251.936V320.892H251.868C251.714 321.224 251.476 321.507 251.152 321.74C250.828 321.97 250.419 322.085 249.925 322.085C249.516 322.085 249.152 321.996 248.834 321.817C248.516 321.635 248.266 321.362 248.084 320.999C247.902 320.632 247.811 320.17 247.811 319.614V315.455H248.817V319.545C248.817 320.023 248.95 320.403 249.217 320.688C249.487 320.972 249.831 321.114 250.249 321.114C250.499 321.114 250.753 321.05 251.011 320.922C251.273 320.794 251.491 320.598 251.668 320.334C251.847 320.07 251.936 319.733 251.936 319.324ZM254.784 322V315.455H255.755V316.443H255.824C255.943 316.119 256.159 315.857 256.471 315.655C256.784 315.453 257.136 315.352 257.528 315.352C257.602 315.352 257.694 315.354 257.805 315.357C257.916 315.359 258 315.364 258.056 315.369V316.392C258.022 316.384 257.944 316.371 257.822 316.354C257.703 316.334 257.576 316.324 257.443 316.324C257.125 316.324 256.841 316.391 256.591 316.524C256.343 316.655 256.147 316.837 256.002 317.07C255.86 317.3 255.789 317.562 255.789 317.858V322H254.784ZM262.505 315.455V316.307H259.113V315.455H262.505ZM260.102 313.886H261.108V320.125C261.108 320.409 261.149 320.622 261.231 320.764C261.316 320.903 261.424 320.997 261.555 321.045C261.689 321.091 261.829 321.114 261.977 321.114C262.088 321.114 262.179 321.108 262.25 321.097C262.321 321.082 262.377 321.071 262.42 321.062L262.625 321.966C262.556 321.991 262.461 322.017 262.339 322.043C262.217 322.071 262.062 322.085 261.875 322.085C261.591 322.085 261.312 322.024 261.039 321.902C260.77 321.78 260.545 321.594 260.366 321.344C260.19 321.094 260.102 320.778 260.102 320.398V313.886ZM264.666 324.455C264.495 324.455 264.343 324.44 264.21 324.412C264.076 324.386 263.984 324.361 263.933 324.335L264.189 323.449C264.433 323.511 264.649 323.534 264.836 323.517C265.024 323.5 265.19 323.416 265.335 323.266C265.483 323.118 265.618 322.878 265.74 322.545L265.927 322.034L263.507 315.455H264.598L266.404 320.67H266.473L268.279 315.455H269.37L266.592 322.955C266.467 323.293 266.312 323.572 266.127 323.794C265.943 324.018 265.728 324.185 265.484 324.293C265.243 324.401 264.97 324.455 264.666 324.455ZM272.425 322.153C272.01 322.153 271.634 322.075 271.295 321.919C270.957 321.76 270.689 321.531 270.49 321.233C270.291 320.932 270.192 320.568 270.192 320.142C270.192 319.767 270.266 319.463 270.413 319.23C270.561 318.994 270.759 318.81 271.006 318.676C271.253 318.543 271.526 318.443 271.824 318.378C272.125 318.31 272.428 318.256 272.732 318.216C273.129 318.165 273.452 318.126 273.699 318.101C273.949 318.072 274.131 318.026 274.244 317.96C274.361 317.895 274.419 317.781 274.419 317.619V317.585C274.419 317.165 274.304 316.838 274.074 316.605C273.847 316.372 273.501 316.256 273.038 316.256C272.558 316.256 272.182 316.361 271.909 316.571C271.636 316.781 271.445 317.006 271.334 317.244L270.379 316.903C270.55 316.506 270.777 316.196 271.061 315.974C271.348 315.75 271.661 315.594 271.999 315.506C272.339 315.415 272.675 315.369 273.004 315.369C273.214 315.369 273.456 315.395 273.729 315.446C274.004 315.494 274.27 315.595 274.526 315.749C274.784 315.902 274.999 316.134 275.169 316.443C275.339 316.753 275.425 317.168 275.425 317.688V322H274.419V321.114H274.368C274.3 321.256 274.186 321.408 274.027 321.57C273.868 321.732 273.656 321.869 273.392 321.983C273.128 322.097 272.805 322.153 272.425 322.153ZM272.578 321.25C272.976 321.25 273.311 321.172 273.584 321.016C273.859 320.859 274.067 320.658 274.206 320.411C274.348 320.163 274.419 319.903 274.419 319.631V318.71C274.376 318.761 274.283 318.808 274.138 318.851C273.996 318.891 273.831 318.926 273.643 318.957C273.459 318.986 273.278 319.011 273.102 319.034C272.929 319.054 272.788 319.071 272.68 319.085C272.419 319.119 272.175 319.175 271.947 319.251C271.723 319.325 271.541 319.437 271.402 319.588C271.266 319.736 271.197 319.937 271.197 320.193C271.197 320.543 271.327 320.807 271.585 320.986C271.847 321.162 272.178 321.25 272.578 321.25ZM277.26 322V315.455H278.232V316.443H278.3C278.419 316.119 278.635 315.857 278.948 315.655C279.26 315.453 279.613 315.352 280.005 315.352C280.078 315.352 280.171 315.354 280.282 315.357C280.392 315.359 280.476 315.364 280.533 315.369V316.392C280.499 316.384 280.421 316.371 280.299 316.354C280.179 316.334 280.053 316.324 279.919 316.324C279.601 316.324 279.317 316.391 279.067 316.524C278.82 316.655 278.624 316.837 278.479 317.07C278.337 317.3 278.266 317.562 278.266 317.858V322H277.26ZM283.998 322.136C283.452 322.136 282.971 321.999 282.553 321.723C282.135 321.445 281.809 321.053 281.573 320.547C281.337 320.038 281.219 319.438 281.219 318.744C281.219 318.057 281.337 317.46 281.573 316.955C281.809 316.449 282.137 316.058 282.557 315.783C282.978 315.507 283.463 315.369 284.015 315.369C284.441 315.369 284.777 315.44 285.025 315.582C285.275 315.722 285.465 315.881 285.596 316.06C285.729 316.236 285.833 316.381 285.907 316.494H285.992V313.273H286.998V322H286.026V320.994H285.907C285.833 321.114 285.728 321.264 285.591 321.446C285.455 321.625 285.26 321.786 285.007 321.928C284.755 322.067 284.418 322.136 283.998 322.136ZM284.134 321.233C284.537 321.233 284.878 321.128 285.157 320.918C285.435 320.705 285.647 320.411 285.792 320.036C285.936 319.658 286.009 319.222 286.009 318.727C286.009 318.239 285.938 317.811 285.796 317.445C285.654 317.075 285.444 316.788 285.165 316.584C284.887 316.376 284.543 316.273 284.134 316.273C283.708 316.273 283.353 316.382 283.069 316.601C282.787 316.817 282.576 317.111 282.434 317.483C282.294 317.852 282.225 318.267 282.225 318.727C282.225 319.193 282.296 319.616 282.438 319.997C282.583 320.375 282.796 320.676 283.077 320.901C283.361 321.122 283.713 321.233 284.134 321.233Z" fill="black"/>
<path d="M145.903 380V379.233L148.784 376.08C149.122 375.71 149.401 375.389 149.619 375.116C149.838 374.841 150 374.582 150.105 374.341C150.213 374.097 150.267 373.841 150.267 373.574C150.267 373.267 150.193 373.001 150.045 372.777C149.901 372.553 149.702 372.379 149.449 372.257C149.196 372.135 148.912 372.074 148.597 372.074C148.261 372.074 147.969 372.143 147.719 372.283C147.472 372.419 147.28 372.611 147.143 372.858C147.01 373.105 146.943 373.395 146.943 373.727H145.938C145.938 373.216 146.055 372.767 146.291 372.381C146.527 371.994 146.848 371.693 147.254 371.477C147.663 371.261 148.122 371.153 148.631 371.153C149.142 371.153 149.595 371.261 149.99 371.477C150.385 371.693 150.695 371.984 150.919 372.351C151.143 372.717 151.256 373.125 151.256 373.574C151.256 373.895 151.197 374.209 151.081 374.516C150.967 374.82 150.768 375.159 150.484 375.534C150.203 375.906 149.812 376.361 149.312 376.898L147.352 378.994V379.062H151.409V380H145.903Z" fill="black"/>
<path d="M145.852 333.119C145.29 333.119 144.788 333.023 144.348 332.83C143.911 332.636 143.563 332.368 143.304 332.024C143.048 331.678 142.909 331.276 142.886 330.818H143.96C143.983 331.099 144.08 331.342 144.25 331.547C144.42 331.749 144.643 331.905 144.919 332.016C145.195 332.126 145.5 332.182 145.835 332.182C146.21 332.182 146.543 332.116 146.832 331.986C147.122 331.855 147.349 331.673 147.514 331.44C147.679 331.207 147.761 330.938 147.761 330.631C147.761 330.31 147.682 330.027 147.523 329.783C147.364 329.536 147.131 329.342 146.824 329.203C146.517 329.064 146.142 328.994 145.699 328.994H145V328.057H145.699C146.045 328.057 146.349 327.994 146.611 327.869C146.875 327.744 147.081 327.568 147.229 327.341C147.379 327.114 147.455 326.847 147.455 326.54C147.455 326.244 147.389 325.987 147.259 325.768C147.128 325.55 146.943 325.379 146.705 325.257C146.469 325.135 146.19 325.074 145.869 325.074C145.568 325.074 145.284 325.129 145.017 325.24C144.753 325.348 144.537 325.506 144.369 325.713C144.202 325.918 144.111 326.165 144.097 326.455H143.074C143.091 325.997 143.229 325.597 143.487 325.253C143.746 324.906 144.084 324.636 144.501 324.443C144.922 324.25 145.384 324.153 145.886 324.153C146.426 324.153 146.889 324.263 147.276 324.482C147.662 324.697 147.959 324.983 148.166 325.338C148.374 325.693 148.477 326.077 148.477 326.489C148.477 326.98 148.348 327.399 148.089 327.746C147.834 328.092 147.486 328.332 147.045 328.466V328.534C147.597 328.625 148.027 328.859 148.337 329.237C148.646 329.612 148.801 330.077 148.801 330.631C148.801 331.105 148.672 331.531 148.413 331.909C148.158 332.284 147.808 332.58 147.365 332.795C146.922 333.011 146.418 333.119 145.852 333.119Z" fill="black"/>
<path d="M150.42 469.636C150.42 470.557 150.254 471.352 149.922 472.023C149.589 472.693 149.134 473.21 148.554 473.574C147.974 473.938 147.313 474.119 146.568 474.119C145.824 474.119 145.162 473.938 144.582 473.574C144.003 473.21 143.547 472.693 143.214 472.023C142.882 471.352 142.716 470.557 142.716 469.636C142.716 468.716 142.882 467.92 143.214 467.25C143.547 466.58 144.003 466.062 144.582 465.699C145.162 465.335 145.824 465.153 146.568 465.153C147.313 465.153 147.974 465.335 148.554 465.699C149.134 466.062 149.589 466.58 149.922 467.25C150.254 467.92 150.42 468.716 150.42 469.636ZM149.398 469.636C149.398 468.881 149.271 468.243 149.018 467.723C148.768 467.203 148.429 466.81 148 466.543C147.574 466.276 147.097 466.142 146.568 466.142C146.04 466.142 145.561 466.276 145.132 466.543C144.706 466.81 144.366 467.203 144.114 467.723C143.864 468.243 143.739 468.881 143.739 469.636C143.739 470.392 143.864 471.03 144.114 471.55C144.366 472.07 144.706 472.463 145.132 472.73C145.561 472.997 146.04 473.131 146.568 473.131C147.097 473.131 147.574 472.997 148 472.73C148.429 472.463 148.768 472.07 149.018 471.55C149.271 471.03 149.398 470.392 149.398 469.636ZM154.976 467.455V468.307H151.447V467.455H154.976ZM152.504 474V466.551C152.504 466.176 152.592 465.864 152.768 465.614C152.945 465.364 153.173 465.176 153.455 465.051C153.736 464.926 154.033 464.864 154.345 464.864C154.592 464.864 154.794 464.884 154.95 464.923C155.107 464.963 155.223 465 155.3 465.034L155.01 465.903C154.959 465.886 154.888 465.865 154.797 465.839C154.709 465.814 154.592 465.801 154.447 465.801C154.115 465.801 153.875 465.885 153.727 466.053C153.582 466.22 153.51 466.466 153.51 466.79V474H152.504ZM159.3 467.455V468.307H155.772V467.455H159.3ZM156.828 474V466.551C156.828 466.176 156.917 465.864 157.093 465.614C157.269 465.364 157.498 465.176 157.779 465.051C158.06 464.926 158.357 464.864 158.669 464.864C158.917 464.864 159.118 464.884 159.275 464.923C159.431 464.963 159.547 465 159.624 465.034L159.334 465.903C159.283 465.886 159.212 465.865 159.121 465.839C159.033 465.814 158.917 465.801 158.772 465.801C158.439 465.801 158.199 465.885 158.051 466.053C157.907 466.22 157.834 466.466 157.834 466.79V474H156.828ZM160.71 474V467.455H161.715V474H160.71ZM161.221 466.364C161.025 466.364 160.856 466.297 160.714 466.163C160.575 466.03 160.505 465.869 160.505 465.682C160.505 465.494 160.575 465.334 160.714 465.2C160.856 465.067 161.025 465 161.221 465C161.417 465 161.585 465.067 161.724 465.2C161.866 465.334 161.937 465.494 161.937 465.682C161.937 465.869 161.866 466.03 161.724 466.163C161.585 466.297 161.417 466.364 161.221 466.364ZM166.216 474.136C165.603 474.136 165.074 473.991 164.631 473.702C164.188 473.412 163.847 473.013 163.608 472.504C163.37 471.996 163.25 471.415 163.25 470.761C163.25 470.097 163.373 469.51 163.617 469.001C163.864 468.49 164.208 468.091 164.648 467.804C165.091 467.514 165.608 467.369 166.199 467.369C166.659 467.369 167.074 467.455 167.444 467.625C167.813 467.795 168.115 468.034 168.351 468.341C168.587 468.648 168.733 469.006 168.79 469.415H167.784C167.708 469.116 167.537 468.852 167.273 468.622C167.012 468.389 166.659 468.273 166.216 468.273C165.824 468.273 165.48 468.375 165.185 468.58C164.892 468.781 164.664 469.067 164.499 469.436C164.337 469.803 164.256 470.233 164.256 470.727C164.256 471.233 164.336 471.673 164.495 472.048C164.657 472.423 164.884 472.714 165.176 472.922C165.472 473.129 165.819 473.233 166.216 473.233C166.478 473.233 166.715 473.188 166.928 473.097C167.141 473.006 167.321 472.875 167.469 472.705C167.617 472.534 167.722 472.33 167.784 472.091H168.79C168.733 472.477 168.593 472.825 168.368 473.135C168.147 473.442 167.853 473.686 167.486 473.868C167.123 474.047 166.699 474.136 166.216 474.136ZM173.005 474.136C172.374 474.136 171.83 473.997 171.373 473.719C170.918 473.438 170.567 473.045 170.32 472.543C170.076 472.037 169.953 471.449 169.953 470.778C169.953 470.108 170.076 469.517 170.32 469.006C170.567 468.491 170.911 468.091 171.351 467.804C171.794 467.514 172.311 467.369 172.902 467.369C173.243 467.369 173.58 467.426 173.912 467.54C174.245 467.653 174.547 467.838 174.82 468.094C175.093 468.347 175.31 468.682 175.472 469.099C175.634 469.517 175.715 470.031 175.715 470.642V471.068H170.669V470.199H174.692C174.692 469.83 174.618 469.5 174.471 469.21C174.326 468.92 174.118 468.692 173.848 468.524C173.581 468.357 173.266 468.273 172.902 468.273C172.502 468.273 172.155 468.372 171.863 468.571C171.573 468.767 171.35 469.023 171.194 469.338C171.037 469.653 170.959 469.991 170.959 470.352V470.932C170.959 471.426 171.044 471.845 171.215 472.189C171.388 472.53 171.628 472.79 171.935 472.969C172.242 473.145 172.598 473.233 173.005 473.233C173.269 473.233 173.507 473.196 173.721 473.122C173.936 473.045 174.123 472.932 174.279 472.781C174.435 472.628 174.556 472.437 174.641 472.21L175.613 472.483C175.51 472.812 175.338 473.102 175.097 473.352C174.855 473.599 174.557 473.793 174.202 473.932C173.847 474.068 173.448 474.136 173.005 474.136Z" fill="black"/>
<path d="M157.972 422.273V431H156.915V423.381H156.864L154.733 424.795V423.722L156.915 422.273H157.972Z" fill="black"/>
<path d="M140.699 242.21V241.341L144.534 235.273H145.165V236.619H144.739L141.841 241.205V241.273H147.006V242.21H140.699ZM144.807 244V241.946V241.541V235.273H145.812V244H144.807Z" fill="black"/>
<path d="M145.631 167.119C145.131 167.119 144.68 167.02 144.28 166.821C143.879 166.622 143.558 166.349 143.317 166.003C143.075 165.656 142.943 165.261 142.92 164.818H143.943C143.983 165.213 144.162 165.54 144.48 165.798C144.801 166.054 145.185 166.182 145.631 166.182C145.989 166.182 146.307 166.098 146.585 165.93C146.866 165.763 147.087 165.533 147.246 165.24C147.408 164.945 147.489 164.611 147.489 164.239C147.489 163.858 147.405 163.518 147.237 163.22C147.072 162.919 146.845 162.682 146.555 162.509C146.266 162.335 145.935 162.247 145.562 162.244C145.295 162.241 145.021 162.283 144.74 162.368C144.459 162.45 144.227 162.557 144.045 162.688L143.057 162.568L143.585 158.273H148.119V159.21H144.472L144.165 161.784H144.216C144.395 161.642 144.619 161.524 144.889 161.43C145.159 161.337 145.44 161.29 145.733 161.29C146.267 161.29 146.743 161.418 147.161 161.673C147.581 161.926 147.911 162.273 148.149 162.713C148.391 163.153 148.511 163.656 148.511 164.222C148.511 164.778 148.386 165.276 148.136 165.713C147.889 166.148 147.548 166.491 147.114 166.744C146.679 166.994 146.185 167.119 145.631 167.119Z" fill="black"/>
<path d="M263.801 167.119C263.443 167.114 263.085 167.045 262.727 166.915C262.369 166.784 262.043 166.564 261.747 166.254C261.452 165.942 261.214 165.52 261.036 164.989C260.857 164.455 260.767 163.784 260.767 162.977C260.767 162.205 260.839 161.52 260.984 160.923C261.129 160.324 261.339 159.82 261.615 159.411C261.891 158.999 262.223 158.686 262.612 158.473C263.004 158.26 263.446 158.153 263.938 158.153C264.426 158.153 264.861 158.251 265.241 158.447C265.625 158.641 265.938 158.911 266.179 159.257C266.42 159.604 266.577 160.003 266.648 160.455H265.608C265.511 160.062 265.324 159.737 265.045 159.479C264.767 159.22 264.398 159.091 263.938 159.091C263.261 159.091 262.729 159.385 262.339 159.973C261.953 160.561 261.759 161.386 261.756 162.449H261.824C261.983 162.207 262.172 162.001 262.391 161.831C262.612 161.658 262.857 161.524 263.124 161.43C263.391 161.337 263.673 161.29 263.972 161.29C264.472 161.29 264.929 161.415 265.344 161.665C265.759 161.912 266.091 162.254 266.341 162.692C266.591 163.126 266.716 163.625 266.716 164.188C266.716 164.727 266.595 165.222 266.354 165.67C266.112 166.116 265.773 166.472 265.335 166.736C264.901 166.997 264.389 167.125 263.801 167.119ZM263.801 166.182C264.159 166.182 264.48 166.092 264.764 165.913C265.051 165.734 265.277 165.494 265.442 165.193C265.609 164.892 265.693 164.557 265.693 164.188C265.693 163.827 265.612 163.499 265.45 163.203C265.291 162.905 265.071 162.668 264.79 162.491C264.511 162.315 264.193 162.227 263.835 162.227C263.565 162.227 263.314 162.281 263.081 162.389C262.848 162.494 262.643 162.639 262.467 162.824C262.294 163.009 262.158 163.22 262.058 163.459C261.959 163.695 261.909 163.943 261.909 164.205C261.909 164.551 261.99 164.875 262.152 165.176C262.317 165.477 262.541 165.72 262.825 165.905C263.112 166.089 263.438 166.182 263.801 166.182Z" fill="black"/>
<path d="M142.176 94L146.08 86.2784V86.2102H141.58V85.2727H147.17V86.2614L143.284 94H142.176Z" fill="black"/>
<path d="M266.699 94.1193C266.114 94.1193 265.597 94.0156 265.148 93.8082C264.702 93.598 264.354 93.3097 264.104 92.9432C263.854 92.5739 263.73 92.1534 263.733 91.6818C263.73 91.3125 263.803 90.9716 263.95 90.6591C264.098 90.3437 264.3 90.081 264.555 89.8707C264.814 89.6577 265.102 89.5227 265.42 89.4659V89.4148C265.003 89.3068 264.67 89.0724 264.423 88.7116C264.176 88.348 264.054 87.9347 264.057 87.4716C264.054 87.0284 264.166 86.6321 264.393 86.2827C264.621 85.9332 264.933 85.6577 265.331 85.456C265.732 85.2543 266.188 85.1534 266.699 85.1534C267.205 85.1534 267.656 85.2543 268.054 85.456C268.452 85.6577 268.764 85.9332 268.991 86.2827C269.222 86.6321 269.338 87.0284 269.341 87.4716C269.338 87.9347 269.212 88.348 268.962 88.7116C268.714 89.0724 268.386 89.3068 267.977 89.4148V89.4659C268.293 89.5227 268.577 89.6577 268.83 89.8707C269.082 90.081 269.284 90.3437 269.435 90.6591C269.585 90.9716 269.662 91.3125 269.665 91.6818C269.662 92.1534 269.534 92.5739 269.281 92.9432C269.031 93.3097 268.683 93.598 268.237 93.8082C267.794 94.0156 267.281 94.1193 266.699 94.1193ZM266.699 93.1818C267.094 93.1818 267.435 93.1179 267.722 92.9901C268.009 92.8622 268.23 92.6818 268.386 92.4489C268.543 92.2159 268.622 91.9432 268.625 91.6307C268.622 91.3011 268.537 91.0099 268.369 90.7571C268.202 90.5043 267.973 90.3054 267.683 90.1605C267.396 90.0156 267.068 89.9432 266.699 89.9432C266.327 89.9432 265.994 90.0156 265.702 90.1605C265.412 90.3054 265.183 90.5043 265.016 90.7571C264.851 91.0099 264.77 91.3011 264.773 91.6307C264.77 91.9432 264.845 92.2159 264.999 92.4489C265.155 92.6818 265.378 92.8622 265.668 92.9901C265.957 93.1179 266.301 93.1818 266.699 93.1818ZM266.699 89.0398C267.011 89.0398 267.288 88.9773 267.53 88.8523C267.774 88.7273 267.966 88.5526 268.105 88.3281C268.244 88.1037 268.315 87.8409 268.318 87.5398C268.315 87.2443 268.246 86.9872 268.109 86.7685C267.973 86.5469 267.784 86.3764 267.543 86.2571C267.301 86.1349 267.02 86.0739 266.699 86.0739C266.372 86.0739 266.087 86.1349 265.842 86.2571C265.598 86.3764 265.409 86.5469 265.276 86.7685C265.142 86.9872 265.077 87.2443 265.08 87.5398C265.077 87.8409 265.143 88.1037 265.28 88.3281C265.419 88.5526 265.611 88.7273 265.855 88.8523C266.099 88.9773 266.381 89.0398 266.699 89.0398Z" fill="black"/>
</g>
<defs>
<clipPath id="clip0_4_48">
<rect width="409" height="544" fill="white"/>
</clipPath>
</defs>
</svg>
