<svg width="409" height="544" viewBox="0 0 409 544" fill="none" xmlns="http://www.w3.org/2000/svg">
<rect x="102" y="315" width="89" height="59" fill="#D9D9D9"/>
<path d="M123.057 349V340.273H126.006C126.688 340.273 127.247 340.389 127.685 340.622C128.122 340.852 128.446 341.169 128.656 341.572C128.866 341.976 128.972 342.435 128.972 342.949C128.972 343.463 128.866 343.919 128.656 344.317C128.446 344.714 128.124 345.027 127.689 345.254C127.254 345.479 126.699 345.591 126.023 345.591H123.636V344.636H125.989C126.455 344.636 126.83 344.568 127.114 344.432C127.401 344.295 127.608 344.102 127.736 343.852C127.866 343.599 127.932 343.298 127.932 342.949C127.932 342.599 127.866 342.294 127.736 342.033C127.605 341.771 127.396 341.57 127.109 341.428C126.822 341.283 126.443 341.21 125.972 341.21H124.114V349H123.057ZM127.165 345.08L129.312 349H128.085L125.972 345.08H127.165ZM133.185 349.136C132.594 349.136 132.076 348.996 131.63 348.714C131.186 348.433 130.84 348.04 130.59 347.534C130.343 347.028 130.219 346.437 130.219 345.761C130.219 345.08 130.343 344.484 130.59 343.976C130.84 343.467 131.186 343.072 131.63 342.791C132.076 342.51 132.594 342.369 133.185 342.369C133.776 342.369 134.293 342.51 134.736 342.791C135.182 343.072 135.529 343.467 135.776 343.976C136.026 344.484 136.151 345.08 136.151 345.761C136.151 346.437 136.026 347.028 135.776 347.534C135.529 348.04 135.182 348.433 134.736 348.714C134.293 348.996 133.776 349.136 133.185 349.136ZM133.185 348.233C133.634 348.233 134.003 348.118 134.293 347.888C134.583 347.658 134.797 347.355 134.936 346.98C135.076 346.605 135.145 346.199 135.145 345.761C135.145 345.324 135.076 344.916 134.936 344.538C134.797 344.161 134.583 343.855 134.293 343.622C134.003 343.389 133.634 343.273 133.185 343.273C132.736 343.273 132.367 343.389 132.077 343.622C131.787 343.855 131.573 344.161 131.434 344.538C131.294 344.916 131.225 345.324 131.225 345.761C131.225 346.199 131.294 346.605 131.434 346.98C131.573 347.355 131.787 347.658 132.077 347.888C132.367 348.118 132.736 348.233 133.185 348.233ZM140.345 349.136C139.754 349.136 139.236 348.996 138.79 348.714C138.347 348.433 138 348.04 137.75 347.534C137.503 347.028 137.379 346.437 137.379 345.761C137.379 345.08 137.503 344.484 137.75 343.976C138 343.467 138.347 343.072 138.79 342.791C139.236 342.51 139.754 342.369 140.345 342.369C140.936 342.369 141.453 342.51 141.896 342.791C142.342 343.072 142.689 343.467 142.936 343.976C143.186 344.484 143.311 345.08 143.311 345.761C143.311 346.437 143.186 347.028 142.936 347.534C142.689 348.04 142.342 348.433 141.896 348.714C141.453 348.996 140.936 349.136 140.345 349.136ZM140.345 348.233C140.794 348.233 141.163 348.118 141.453 347.888C141.743 347.658 141.957 347.355 142.097 346.98C142.236 346.605 142.305 346.199 142.305 345.761C142.305 345.324 142.236 344.916 142.097 344.538C141.957 344.161 141.743 343.855 141.453 343.622C141.163 343.389 140.794 343.273 140.345 343.273C139.896 343.273 139.527 343.389 139.237 343.622C138.947 343.855 138.733 344.161 138.594 344.538C138.455 344.916 138.385 345.324 138.385 345.761C138.385 346.199 138.455 346.605 138.594 346.98C138.733 347.355 138.947 347.658 139.237 347.888C139.527 348.118 139.896 348.233 140.345 348.233ZM144.846 349V342.455H145.818V343.477H145.903C146.039 343.128 146.26 342.857 146.564 342.663C146.868 342.467 147.233 342.369 147.659 342.369C148.091 342.369 148.45 342.467 148.737 342.663C149.027 342.857 149.252 343.128 149.414 343.477H149.483C149.65 343.139 149.902 342.871 150.237 342.672C150.572 342.47 150.974 342.369 151.443 342.369C152.028 342.369 152.507 342.553 152.879 342.919C153.251 343.283 153.437 343.849 153.437 344.619V349H152.431V344.619C152.431 344.136 152.299 343.791 152.035 343.584C151.771 343.376 151.46 343.273 151.102 343.273C150.642 343.273 150.285 343.412 150.032 343.69C149.779 343.966 149.653 344.315 149.653 344.739V349H148.63V344.517C148.63 344.145 148.51 343.845 148.268 343.618C148.027 343.388 147.716 343.273 147.335 343.273C147.074 343.273 146.829 343.342 146.602 343.482C146.377 343.621 146.196 343.814 146.056 344.061C145.92 344.305 145.852 344.588 145.852 344.909V349H144.846ZM161.412 340.153C161.77 340.156 162.128 340.224 162.486 340.358C162.844 340.491 163.171 340.713 163.466 341.023C163.762 341.33 163.999 341.749 164.178 342.28C164.357 342.811 164.446 343.477 164.446 344.278C164.446 345.054 164.373 345.743 164.225 346.345C164.08 346.945 163.87 347.45 163.594 347.862C163.321 348.274 162.989 348.587 162.597 348.8C162.208 349.013 161.767 349.119 161.276 349.119C160.787 349.119 160.351 349.023 159.968 348.83C159.587 348.634 159.275 348.362 159.03 348.016C158.789 347.666 158.634 347.261 158.566 346.801H159.605C159.699 347.202 159.885 347.533 160.164 347.794C160.445 348.053 160.816 348.182 161.276 348.182C161.949 348.182 162.48 347.888 162.87 347.3C163.262 346.712 163.458 345.881 163.458 344.807H163.39C163.23 345.045 163.042 345.251 162.823 345.425C162.604 345.598 162.361 345.732 162.094 345.825C161.827 345.919 161.543 345.966 161.242 345.966C160.742 345.966 160.283 345.842 159.865 345.595C159.451 345.345 159.118 345.003 158.868 344.568C158.621 344.131 158.498 343.631 158.498 343.068C158.498 342.534 158.617 342.045 158.855 341.602C159.097 341.156 159.435 340.801 159.87 340.537C160.307 340.273 160.821 340.145 161.412 340.153ZM161.412 341.091C161.054 341.091 160.732 341.18 160.445 341.359C160.161 341.536 159.935 341.774 159.767 342.075C159.603 342.374 159.52 342.705 159.52 343.068C159.52 343.432 159.6 343.763 159.759 344.061C159.921 344.357 160.141 344.592 160.419 344.768C160.701 344.942 161.02 345.028 161.378 345.028C161.648 345.028 161.9 344.976 162.132 344.871C162.365 344.763 162.569 344.616 162.742 344.432C162.918 344.244 163.056 344.033 163.155 343.797C163.255 343.558 163.304 343.31 163.304 343.051C163.304 342.71 163.222 342.391 163.057 342.092C162.895 341.794 162.671 341.553 162.384 341.368C162.1 341.183 161.776 341.091 161.412 341.091Z" fill="black"/>
<rect x="220" y="315" width="89" height="59" fill="#D9D9D9"/>
<path d="M242.057 349V340.273H245.006C245.688 340.273 246.247 340.389 246.685 340.622C247.122 340.852 247.446 341.169 247.656 341.572C247.866 341.976 247.972 342.435 247.972 342.949C247.972 343.463 247.866 343.919 247.656 344.317C247.446 344.714 247.124 345.027 246.689 345.254C246.254 345.479 245.699 345.591 245.023 345.591H242.636V344.636H244.989C245.455 344.636 245.83 344.568 246.114 344.432C246.401 344.295 246.608 344.102 246.736 343.852C246.866 343.599 246.932 343.298 246.932 342.949C246.932 342.599 246.866 342.294 246.736 342.033C246.605 341.771 246.396 341.57 246.109 341.428C245.822 341.283 245.443 341.21 244.972 341.21H243.114V349H242.057ZM246.165 345.08L248.312 349H247.085L244.972 345.08H246.165ZM252.185 349.136C251.594 349.136 251.076 348.996 250.63 348.714C250.186 348.433 249.84 348.04 249.59 347.534C249.343 347.028 249.219 346.437 249.219 345.761C249.219 345.08 249.343 344.484 249.59 343.976C249.84 343.467 250.186 343.072 250.63 342.791C251.076 342.51 251.594 342.369 252.185 342.369C252.776 342.369 253.293 342.51 253.736 342.791C254.182 343.072 254.529 343.467 254.776 343.976C255.026 344.484 255.151 345.08 255.151 345.761C255.151 346.437 255.026 347.028 254.776 347.534C254.529 348.04 254.182 348.433 253.736 348.714C253.293 348.996 252.776 349.136 252.185 349.136ZM252.185 348.233C252.634 348.233 253.003 348.118 253.293 347.888C253.583 347.658 253.797 347.355 253.936 346.98C254.076 346.605 254.145 346.199 254.145 345.761C254.145 345.324 254.076 344.916 253.936 344.538C253.797 344.161 253.583 343.855 253.293 343.622C253.003 343.389 252.634 343.273 252.185 343.273C251.736 343.273 251.367 343.389 251.077 343.622C250.787 343.855 250.573 344.161 250.434 344.538C250.294 344.916 250.225 345.324 250.225 345.761C250.225 346.199 250.294 346.605 250.434 346.98C250.573 347.355 250.787 347.658 251.077 347.888C251.367 348.118 251.736 348.233 252.185 348.233ZM259.345 349.136C258.754 349.136 258.236 348.996 257.79 348.714C257.347 348.433 257 348.04 256.75 347.534C256.503 347.028 256.379 346.437 256.379 345.761C256.379 345.08 256.503 344.484 256.75 343.976C257 343.467 257.347 343.072 257.79 342.791C258.236 342.51 258.754 342.369 259.345 342.369C259.936 342.369 260.453 342.51 260.896 342.791C261.342 343.072 261.689 343.467 261.936 343.976C262.186 344.484 262.311 345.08 262.311 345.761C262.311 346.437 262.186 347.028 261.936 347.534C261.689 348.04 261.342 348.433 260.896 348.714C260.453 348.996 259.936 349.136 259.345 349.136ZM259.345 348.233C259.794 348.233 260.163 348.118 260.453 347.888C260.743 347.658 260.957 347.355 261.097 346.98C261.236 346.605 261.305 346.199 261.305 345.761C261.305 345.324 261.236 344.916 261.097 344.538C260.957 344.161 260.743 343.855 260.453 343.622C260.163 343.389 259.794 343.273 259.345 343.273C258.896 343.273 258.527 343.389 258.237 343.622C257.947 343.855 257.733 344.161 257.594 344.538C257.455 344.916 257.385 345.324 257.385 345.761C257.385 346.199 257.455 346.605 257.594 346.98C257.733 347.355 257.947 347.658 258.237 347.888C258.527 348.118 258.896 348.233 259.345 348.233ZM263.846 349V342.455H264.818V343.477H264.903C265.039 343.128 265.26 342.857 265.564 342.663C265.868 342.467 266.233 342.369 266.659 342.369C267.091 342.369 267.45 342.467 267.737 342.663C268.027 342.857 268.252 343.128 268.414 343.477H268.483C268.65 343.139 268.902 342.871 269.237 342.672C269.572 342.47 269.974 342.369 270.443 342.369C271.028 342.369 271.507 342.553 271.879 342.919C272.251 343.283 272.437 343.849 272.437 344.619V349H271.431V344.619C271.431 344.136 271.299 343.791 271.035 343.584C270.771 343.376 270.46 343.273 270.102 343.273C269.642 343.273 269.285 343.412 269.032 343.69C268.779 343.966 268.653 344.315 268.653 344.739V349H267.63V344.517C267.63 344.145 267.51 343.845 267.268 343.618C267.027 343.388 266.716 343.273 266.335 343.273C266.074 343.273 265.829 343.342 265.602 343.482C265.377 343.621 265.196 343.814 265.056 344.061C264.92 344.305 264.852 344.588 264.852 344.909V349H263.846ZM280.702 340.273V349H279.645V341.381H279.594L277.463 342.795V341.722L279.645 340.273H280.702ZM286.059 349.119C285.417 349.119 284.87 348.945 284.418 348.595C283.966 348.243 283.621 347.733 283.382 347.065C283.144 346.395 283.025 345.585 283.025 344.636C283.025 343.693 283.144 342.888 283.382 342.22C283.624 341.55 283.971 341.038 284.422 340.686C284.877 340.331 285.422 340.153 286.059 340.153C286.695 340.153 287.239 340.331 287.691 340.686C288.145 341.038 288.492 341.55 288.73 342.22C288.972 342.888 289.093 343.693 289.093 344.636C289.093 345.585 288.973 346.395 288.735 347.065C288.496 347.733 288.151 348.243 287.699 348.595C287.248 348.945 286.701 349.119 286.059 349.119ZM286.059 348.182C286.695 348.182 287.189 347.875 287.542 347.261C287.894 346.648 288.07 345.773 288.07 344.636C288.07 343.881 287.989 343.237 287.827 342.706C287.668 342.175 287.438 341.77 287.137 341.491C286.838 341.213 286.479 341.074 286.059 341.074C285.428 341.074 284.935 341.385 284.58 342.007C284.225 342.626 284.047 343.503 284.047 344.636C284.047 345.392 284.127 346.034 284.286 346.562C284.445 347.091 284.674 347.493 284.972 347.768C285.273 348.044 285.635 348.182 286.059 348.182Z" fill="black"/>
<rect x="220" y="242" width="89" height="59" fill="#D9D9D9"/>
<path d="M241.057 276V267.273H244.006C244.688 267.273 245.247 267.389 245.685 267.622C246.122 267.852 246.446 268.169 246.656 268.572C246.866 268.976 246.972 269.435 246.972 269.949C246.972 270.463 246.866 270.919 246.656 271.317C246.446 271.714 246.124 272.027 245.689 272.254C245.254 272.479 244.699 272.591 244.023 272.591H241.636V271.636H243.989C244.455 271.636 244.83 271.568 245.114 271.432C245.401 271.295 245.608 271.102 245.736 270.852C245.866 270.599 245.932 270.298 245.932 269.949C245.932 269.599 245.866 269.294 245.736 269.033C245.605 268.771 245.396 268.57 245.109 268.428C244.822 268.283 244.443 268.21 243.972 268.21H242.114V276H241.057ZM245.165 272.08L247.312 276H246.085L243.972 272.08H245.165ZM251.185 276.136C250.594 276.136 250.076 275.996 249.63 275.714C249.186 275.433 248.84 275.04 248.59 274.534C248.343 274.028 248.219 273.437 248.219 272.761C248.219 272.08 248.343 271.484 248.59 270.976C248.84 270.467 249.186 270.072 249.63 269.791C250.076 269.51 250.594 269.369 251.185 269.369C251.776 269.369 252.293 269.51 252.736 269.791C253.182 270.072 253.529 270.467 253.776 270.976C254.026 271.484 254.151 272.08 254.151 272.761C254.151 273.437 254.026 274.028 253.776 274.534C253.529 275.04 253.182 275.433 252.736 275.714C252.293 275.996 251.776 276.136 251.185 276.136ZM251.185 275.233C251.634 275.233 252.003 275.118 252.293 274.888C252.583 274.658 252.797 274.355 252.936 273.98C253.076 273.605 253.145 273.199 253.145 272.761C253.145 272.324 253.076 271.916 252.936 271.538C252.797 271.161 252.583 270.855 252.293 270.622C252.003 270.389 251.634 270.273 251.185 270.273C250.736 270.273 250.367 270.389 250.077 270.622C249.787 270.855 249.573 271.161 249.434 271.538C249.294 271.916 249.225 272.324 249.225 272.761C249.225 273.199 249.294 273.605 249.434 273.98C249.573 274.355 249.787 274.658 250.077 274.888C250.367 275.118 250.736 275.233 251.185 275.233ZM258.345 276.136C257.754 276.136 257.236 275.996 256.79 275.714C256.347 275.433 256 275.04 255.75 274.534C255.503 274.028 255.379 273.437 255.379 272.761C255.379 272.08 255.503 271.484 255.75 270.976C256 270.467 256.347 270.072 256.79 269.791C257.236 269.51 257.754 269.369 258.345 269.369C258.936 269.369 259.453 269.51 259.896 269.791C260.342 270.072 260.689 270.467 260.936 270.976C261.186 271.484 261.311 272.08 261.311 272.761C261.311 273.437 261.186 274.028 260.936 274.534C260.689 275.04 260.342 275.433 259.896 275.714C259.453 275.996 258.936 276.136 258.345 276.136ZM258.345 275.233C258.794 275.233 259.163 275.118 259.453 274.888C259.743 274.658 259.957 274.355 260.097 273.98C260.236 273.605 260.305 273.199 260.305 272.761C260.305 272.324 260.236 271.916 260.097 271.538C259.957 271.161 259.743 270.855 259.453 270.622C259.163 270.389 258.794 270.273 258.345 270.273C257.896 270.273 257.527 270.389 257.237 270.622C256.947 270.855 256.733 271.161 256.594 271.538C256.455 271.916 256.385 272.324 256.385 272.761C256.385 273.199 256.455 273.605 256.594 273.98C256.733 274.355 256.947 274.658 257.237 274.888C257.527 275.118 257.896 275.233 258.345 275.233ZM262.846 276V269.455H263.818V270.477H263.903C264.039 270.128 264.26 269.857 264.564 269.663C264.868 269.467 265.233 269.369 265.659 269.369C266.091 269.369 266.45 269.467 266.737 269.663C267.027 269.857 267.252 270.128 267.414 270.477H267.483C267.65 270.139 267.902 269.871 268.237 269.672C268.572 269.47 268.974 269.369 269.443 269.369C270.028 269.369 270.507 269.553 270.879 269.919C271.251 270.283 271.437 270.849 271.437 271.619V276H270.431V271.619C270.431 271.136 270.299 270.791 270.035 270.584C269.771 270.376 269.46 270.273 269.102 270.273C268.642 270.273 268.285 270.412 268.032 270.69C267.779 270.966 267.653 271.315 267.653 271.739V276H266.63V271.517C266.63 271.145 266.51 270.845 266.268 270.618C266.027 270.388 265.716 270.273 265.335 270.273C265.074 270.273 264.829 270.342 264.602 270.482C264.377 270.621 264.196 270.814 264.056 271.061C263.92 271.305 263.852 271.588 263.852 271.909V276H262.846ZM279.702 267.273V276H278.645V268.381H278.594L276.463 269.795V268.722L278.645 267.273H279.702ZM282.212 276V275.233L285.093 272.08C285.431 271.71 285.709 271.389 285.928 271.116C286.147 270.841 286.309 270.582 286.414 270.341C286.522 270.097 286.576 269.841 286.576 269.574C286.576 269.267 286.502 269.001 286.354 268.777C286.209 268.553 286.01 268.379 285.757 268.257C285.505 268.135 285.221 268.074 284.905 268.074C284.57 268.074 284.277 268.143 284.027 268.283C283.78 268.419 283.588 268.611 283.452 268.858C283.319 269.105 283.252 269.395 283.252 269.727H282.246C282.246 269.216 282.364 268.767 282.6 268.381C282.836 267.994 283.157 267.693 283.563 267.477C283.972 267.261 284.431 267.153 284.939 267.153C285.451 267.153 285.904 267.261 286.299 267.477C286.694 267.693 287.003 267.984 287.228 268.351C287.452 268.717 287.564 269.125 287.564 269.574C287.564 269.895 287.506 270.209 287.39 270.516C287.276 270.82 287.077 271.159 286.793 271.534C286.512 271.906 286.121 272.361 285.621 272.898L283.661 274.994V275.062H287.718V276H282.212Z" fill="black"/>
<rect x="101" y="242" width="89" height="59" fill="#D9D9D9"/>
<path d="M123.057 276V267.273H126.006C126.688 267.273 127.247 267.389 127.685 267.622C128.122 267.852 128.446 268.169 128.656 268.572C128.866 268.976 128.972 269.435 128.972 269.949C128.972 270.463 128.866 270.919 128.656 271.317C128.446 271.714 128.124 272.027 127.689 272.254C127.254 272.479 126.699 272.591 126.023 272.591H123.636V271.636H125.989C126.455 271.636 126.83 271.568 127.114 271.432C127.401 271.295 127.608 271.102 127.736 270.852C127.866 270.599 127.932 270.298 127.932 269.949C127.932 269.599 127.866 269.294 127.736 269.033C127.605 268.771 127.396 268.57 127.109 268.428C126.822 268.283 126.443 268.21 125.972 268.21H124.114V276H123.057ZM127.165 272.08L129.312 276H128.085L125.972 272.08H127.165ZM133.185 276.136C132.594 276.136 132.076 275.996 131.63 275.714C131.186 275.433 130.84 275.04 130.59 274.534C130.343 274.028 130.219 273.437 130.219 272.761C130.219 272.08 130.343 271.484 130.59 270.976C130.84 270.467 131.186 270.072 131.63 269.791C132.076 269.51 132.594 269.369 133.185 269.369C133.776 269.369 134.293 269.51 134.736 269.791C135.182 270.072 135.529 270.467 135.776 270.976C136.026 271.484 136.151 272.08 136.151 272.761C136.151 273.437 136.026 274.028 135.776 274.534C135.529 275.04 135.182 275.433 134.736 275.714C134.293 275.996 133.776 276.136 133.185 276.136ZM133.185 275.233C133.634 275.233 134.003 275.118 134.293 274.888C134.583 274.658 134.797 274.355 134.936 273.98C135.076 273.605 135.145 273.199 135.145 272.761C135.145 272.324 135.076 271.916 134.936 271.538C134.797 271.161 134.583 270.855 134.293 270.622C134.003 270.389 133.634 270.273 133.185 270.273C132.736 270.273 132.367 270.389 132.077 270.622C131.787 270.855 131.573 271.161 131.434 271.538C131.294 271.916 131.225 272.324 131.225 272.761C131.225 273.199 131.294 273.605 131.434 273.98C131.573 274.355 131.787 274.658 132.077 274.888C132.367 275.118 132.736 275.233 133.185 275.233ZM140.345 276.136C139.754 276.136 139.236 275.996 138.79 275.714C138.347 275.433 138 275.04 137.75 274.534C137.503 274.028 137.379 273.437 137.379 272.761C137.379 272.08 137.503 271.484 137.75 270.976C138 270.467 138.347 270.072 138.79 269.791C139.236 269.51 139.754 269.369 140.345 269.369C140.936 269.369 141.453 269.51 141.896 269.791C142.342 270.072 142.689 270.467 142.936 270.976C143.186 271.484 143.311 272.08 143.311 272.761C143.311 273.437 143.186 274.028 142.936 274.534C142.689 275.04 142.342 275.433 141.896 275.714C141.453 275.996 140.936 276.136 140.345 276.136ZM140.345 275.233C140.794 275.233 141.163 275.118 141.453 274.888C141.743 274.658 141.957 274.355 142.097 273.98C142.236 273.605 142.305 273.199 142.305 272.761C142.305 272.324 142.236 271.916 142.097 271.538C141.957 271.161 141.743 270.855 141.453 270.622C141.163 270.389 140.794 270.273 140.345 270.273C139.896 270.273 139.527 270.389 139.237 270.622C138.947 270.855 138.733 271.161 138.594 271.538C138.455 271.916 138.385 272.324 138.385 272.761C138.385 273.199 138.455 273.605 138.594 273.98C138.733 274.355 138.947 274.658 139.237 274.888C139.527 275.118 139.896 275.233 140.345 275.233ZM144.846 276V269.455H145.818V270.477H145.903C146.039 270.128 146.26 269.857 146.564 269.663C146.868 269.467 147.233 269.369 147.659 269.369C148.091 269.369 148.45 269.467 148.737 269.663C149.027 269.857 149.252 270.128 149.414 270.477H149.483C149.65 270.139 149.902 269.871 150.237 269.672C150.572 269.47 150.974 269.369 151.443 269.369C152.028 269.369 152.507 269.553 152.879 269.919C153.251 270.283 153.437 270.849 153.437 271.619V276H152.431V271.619C152.431 271.136 152.299 270.791 152.035 270.584C151.771 270.376 151.46 270.273 151.102 270.273C150.642 270.273 150.285 270.412 150.032 270.69C149.779 270.966 149.653 271.315 149.653 271.739V276H148.63V271.517C148.63 271.145 148.51 270.845 148.268 270.618C148.027 270.388 147.716 270.273 147.335 270.273C147.074 270.273 146.829 270.342 146.602 270.482C146.377 270.621 146.196 270.814 146.056 271.061C145.92 271.305 145.852 271.588 145.852 271.909V276H144.846ZM161.702 267.273V276H160.645V268.381H160.594L158.463 269.795V268.722L160.645 267.273H161.702ZM167.28 267.273V276H166.223V268.381H166.172L164.042 269.795V268.722L166.223 267.273H167.28Z" fill="black"/>
<rect x="220" y="169" width="89" height="59" fill="#D9D9D9"/>
<rect x="101" y="169" width="89" height="59" fill="#D9D9D9"/>
<path d="M122.057 203V194.273H125.006C125.688 194.273 126.247 194.389 126.685 194.622C127.122 194.852 127.446 195.169 127.656 195.572C127.866 195.976 127.972 196.435 127.972 196.949C127.972 197.463 127.866 197.919 127.656 198.317C127.446 198.714 127.124 199.027 126.689 199.254C126.254 199.479 125.699 199.591 125.023 199.591H122.636V198.636H124.989C125.455 198.636 125.83 198.568 126.114 198.432C126.401 198.295 126.608 198.102 126.736 197.852C126.866 197.599 126.932 197.298 126.932 196.949C126.932 196.599 126.866 196.294 126.736 196.033C126.605 195.771 126.396 195.57 126.109 195.428C125.822 195.283 125.443 195.21 124.972 195.21H123.114V203H122.057ZM126.165 199.08L128.312 203H127.085L124.972 199.08H126.165ZM132.185 203.136C131.594 203.136 131.076 202.996 130.63 202.714C130.186 202.433 129.84 202.04 129.59 201.534C129.343 201.028 129.219 200.437 129.219 199.761C129.219 199.08 129.343 198.484 129.59 197.976C129.84 197.467 130.186 197.072 130.63 196.791C131.076 196.51 131.594 196.369 132.185 196.369C132.776 196.369 133.293 196.51 133.736 196.791C134.182 197.072 134.529 197.467 134.776 197.976C135.026 198.484 135.151 199.08 135.151 199.761C135.151 200.437 135.026 201.028 134.776 201.534C134.529 202.04 134.182 202.433 133.736 202.714C133.293 202.996 132.776 203.136 132.185 203.136ZM132.185 202.233C132.634 202.233 133.003 202.118 133.293 201.888C133.583 201.658 133.797 201.355 133.936 200.98C134.076 200.605 134.145 200.199 134.145 199.761C134.145 199.324 134.076 198.916 133.936 198.538C133.797 198.161 133.583 197.855 133.293 197.622C133.003 197.389 132.634 197.273 132.185 197.273C131.736 197.273 131.367 197.389 131.077 197.622C130.787 197.855 130.573 198.161 130.434 198.538C130.294 198.916 130.225 199.324 130.225 199.761C130.225 200.199 130.294 200.605 130.434 200.98C130.573 201.355 130.787 201.658 131.077 201.888C131.367 202.118 131.736 202.233 132.185 202.233ZM139.345 203.136C138.754 203.136 138.236 202.996 137.79 202.714C137.347 202.433 137 202.04 136.75 201.534C136.503 201.028 136.379 200.437 136.379 199.761C136.379 199.08 136.503 198.484 136.75 197.976C137 197.467 137.347 197.072 137.79 196.791C138.236 196.51 138.754 196.369 139.345 196.369C139.936 196.369 140.453 196.51 140.896 196.791C141.342 197.072 141.689 197.467 141.936 197.976C142.186 198.484 142.311 199.08 142.311 199.761C142.311 200.437 142.186 201.028 141.936 201.534C141.689 202.04 141.342 202.433 140.896 202.714C140.453 202.996 139.936 203.136 139.345 203.136ZM139.345 202.233C139.794 202.233 140.163 202.118 140.453 201.888C140.743 201.658 140.957 201.355 141.097 200.98C141.236 200.605 141.305 200.199 141.305 199.761C141.305 199.324 141.236 198.916 141.097 198.538C140.957 198.161 140.743 197.855 140.453 197.622C140.163 197.389 139.794 197.273 139.345 197.273C138.896 197.273 138.527 197.389 138.237 197.622C137.947 197.855 137.733 198.161 137.594 198.538C137.455 198.916 137.385 199.324 137.385 199.761C137.385 200.199 137.455 200.605 137.594 200.98C137.733 201.355 137.947 201.658 138.237 201.888C138.527 202.118 138.896 202.233 139.345 202.233ZM143.846 203V196.455H144.818V197.477H144.903C145.039 197.128 145.26 196.857 145.564 196.663C145.868 196.467 146.233 196.369 146.659 196.369C147.091 196.369 147.45 196.467 147.737 196.663C148.027 196.857 148.252 197.128 148.414 197.477H148.483C148.65 197.139 148.902 196.871 149.237 196.672C149.572 196.47 149.974 196.369 150.443 196.369C151.028 196.369 151.507 196.553 151.879 196.919C152.251 197.283 152.437 197.849 152.437 198.619V203H151.431V198.619C151.431 198.136 151.299 197.791 151.035 197.584C150.771 197.376 150.46 197.273 150.102 197.273C149.642 197.273 149.285 197.412 149.032 197.69C148.779 197.966 148.653 198.315 148.653 198.739V203H147.63V198.517C147.63 198.145 147.51 197.845 147.268 197.618C147.027 197.388 146.716 197.273 146.335 197.273C146.074 197.273 145.829 197.342 145.602 197.482C145.377 197.621 145.196 197.814 145.056 198.061C144.92 198.305 144.852 198.588 144.852 198.909V203H143.846ZM160.702 194.273V203H159.645V195.381H159.594L157.463 196.795V195.722L159.645 194.273H160.702ZM166.161 203.119C165.598 203.119 165.097 203.023 164.657 202.83C164.219 202.636 163.871 202.368 163.613 202.024C163.357 201.678 163.218 201.276 163.195 200.818H164.269C164.292 201.099 164.388 201.342 164.559 201.547C164.729 201.749 164.952 201.905 165.228 202.016C165.503 202.126 165.809 202.182 166.144 202.182C166.519 202.182 166.851 202.116 167.141 201.986C167.431 201.855 167.658 201.673 167.823 201.44C167.988 201.207 168.07 200.938 168.07 200.631C168.07 200.31 167.99 200.027 167.831 199.783C167.672 199.536 167.439 199.342 167.132 199.203C166.826 199.064 166.451 198.994 166.007 198.994H165.309V198.057H166.007C166.354 198.057 166.658 197.994 166.919 197.869C167.184 197.744 167.39 197.568 167.537 197.341C167.688 197.114 167.763 196.847 167.763 196.54C167.763 196.244 167.698 195.987 167.567 195.768C167.436 195.55 167.252 195.379 167.013 195.257C166.777 195.135 166.499 195.074 166.178 195.074C165.877 195.074 165.593 195.129 165.326 195.24C165.061 195.348 164.846 195.506 164.678 195.713C164.51 195.918 164.419 196.165 164.405 196.455H163.382C163.4 195.997 163.537 195.597 163.796 195.253C164.054 194.906 164.392 194.636 164.81 194.443C165.23 194.25 165.692 194.153 166.195 194.153C166.735 194.153 167.198 194.263 167.584 194.482C167.971 194.697 168.267 194.983 168.475 195.338C168.682 195.693 168.786 196.077 168.786 196.489C168.786 196.98 168.657 197.399 168.398 197.746C168.142 198.092 167.794 198.332 167.354 198.466V198.534C167.905 198.625 168.336 198.859 168.645 199.237C168.955 199.612 169.11 200.077 169.11 200.631C169.11 201.105 168.98 201.531 168.722 201.909C168.466 202.284 168.117 202.58 167.674 202.795C167.23 203.011 166.726 203.119 166.161 203.119Z" fill="black"/>
<path d="M241.057 203V194.273H244.006C244.688 194.273 245.247 194.389 245.685 194.622C246.122 194.852 246.446 195.169 246.656 195.572C246.866 195.976 246.972 196.435 246.972 196.949C246.972 197.463 246.866 197.919 246.656 198.317C246.446 198.714 246.124 199.027 245.689 199.254C245.254 199.479 244.699 199.591 244.023 199.591H241.636V198.636H243.989C244.455 198.636 244.83 198.568 245.114 198.432C245.401 198.295 245.608 198.102 245.736 197.852C245.866 197.599 245.932 197.298 245.932 196.949C245.932 196.599 245.866 196.294 245.736 196.033C245.605 195.771 245.396 195.57 245.109 195.428C244.822 195.283 244.443 195.21 243.972 195.21H242.114V203H241.057ZM245.165 199.08L247.312 203H246.085L243.972 199.08H245.165ZM251.185 203.136C250.594 203.136 250.076 202.996 249.63 202.714C249.186 202.433 248.84 202.04 248.59 201.534C248.343 201.028 248.219 200.437 248.219 199.761C248.219 199.08 248.343 198.484 248.59 197.976C248.84 197.467 249.186 197.072 249.63 196.791C250.076 196.51 250.594 196.369 251.185 196.369C251.776 196.369 252.293 196.51 252.736 196.791C253.182 197.072 253.529 197.467 253.776 197.976C254.026 198.484 254.151 199.08 254.151 199.761C254.151 200.437 254.026 201.028 253.776 201.534C253.529 202.04 253.182 202.433 252.736 202.714C252.293 202.996 251.776 203.136 251.185 203.136ZM251.185 202.233C251.634 202.233 252.003 202.118 252.293 201.888C252.583 201.658 252.797 201.355 252.936 200.98C253.076 200.605 253.145 200.199 253.145 199.761C253.145 199.324 253.076 198.916 252.936 198.538C252.797 198.161 252.583 197.855 252.293 197.622C252.003 197.389 251.634 197.273 251.185 197.273C250.736 197.273 250.367 197.389 250.077 197.622C249.787 197.855 249.573 198.161 249.434 198.538C249.294 198.916 249.225 199.324 249.225 199.761C249.225 200.199 249.294 200.605 249.434 200.98C249.573 201.355 249.787 201.658 250.077 201.888C250.367 202.118 250.736 202.233 251.185 202.233ZM258.345 203.136C257.754 203.136 257.236 202.996 256.79 202.714C256.347 202.433 256 202.04 255.75 201.534C255.503 201.028 255.379 200.437 255.379 199.761C255.379 199.08 255.503 198.484 255.75 197.976C256 197.467 256.347 197.072 256.79 196.791C257.236 196.51 257.754 196.369 258.345 196.369C258.936 196.369 259.453 196.51 259.896 196.791C260.342 197.072 260.689 197.467 260.936 197.976C261.186 198.484 261.311 199.08 261.311 199.761C261.311 200.437 261.186 201.028 260.936 201.534C260.689 202.04 260.342 202.433 259.896 202.714C259.453 202.996 258.936 203.136 258.345 203.136ZM258.345 202.233C258.794 202.233 259.163 202.118 259.453 201.888C259.743 201.658 259.957 201.355 260.097 200.98C260.236 200.605 260.305 200.199 260.305 199.761C260.305 199.324 260.236 198.916 260.097 198.538C259.957 198.161 259.743 197.855 259.453 197.622C259.163 197.389 258.794 197.273 258.345 197.273C257.896 197.273 257.527 197.389 257.237 197.622C256.947 197.855 256.733 198.161 256.594 198.538C256.455 198.916 256.385 199.324 256.385 199.761C256.385 200.199 256.455 200.605 256.594 200.98C256.733 201.355 256.947 201.658 257.237 201.888C257.527 202.118 257.896 202.233 258.345 202.233ZM262.846 203V196.455H263.818V197.477H263.903C264.039 197.128 264.26 196.857 264.564 196.663C264.868 196.467 265.233 196.369 265.659 196.369C266.091 196.369 266.45 196.467 266.737 196.663C267.027 196.857 267.252 197.128 267.414 197.477H267.483C267.65 197.139 267.902 196.871 268.237 196.672C268.572 196.47 268.974 196.369 269.443 196.369C270.028 196.369 270.507 196.553 270.879 196.919C271.251 197.283 271.437 197.849 271.437 198.619V203H270.431V198.619C270.431 198.136 270.299 197.791 270.035 197.584C269.771 197.376 269.46 197.273 269.102 197.273C268.642 197.273 268.285 197.412 268.032 197.69C267.779 197.966 267.653 198.315 267.653 198.739V203H266.63V198.517C266.63 198.145 266.51 197.845 266.268 197.618C266.027 197.388 265.716 197.273 265.335 197.273C265.074 197.273 264.829 197.342 264.602 197.482C264.377 197.621 264.196 197.814 264.056 198.061C263.92 198.305 263.852 198.588 263.852 198.909V203H262.846ZM279.702 194.273V203H278.645V195.381H278.594L276.463 196.795V195.722L278.645 194.273H279.702ZM282.007 201.21V200.341L285.843 194.273H286.473V195.619H286.047L283.15 200.205V200.273H288.314V201.21H282.007ZM286.115 203V200.946V200.541V194.273H287.121V203H286.115Z" fill="black"/>
</svg>
